<svg width="73" height="74" viewBox="0 0 73 74" fill="none" xmlns="http://www.w3.org/2000/svg">
<path d="M53.0624 37C53.0624 46.3888 45.4513 54 36.0624 54C26.6736 54 19.0624 46.3888 19.0624 37C19.0624 27.6112 26.6736 20 36.0624 20C45.4513 20 53.0624 27.6112 53.0624 37Z" fill="#6D6D6D"/>
<path d="M34.5905 0.937561H37.5344V16.3929H34.5905V0.937561Z" fill="#6D6D6D"/>
<path d="M34.5905 57.6071H37.5344V73.0625H34.5905V57.6071Z" fill="#6D6D6D"/>
<path d="M15.4553 35.5281V38.4719H0L1.28681e-07 35.5281H15.4553Z" fill="#6D6D6D"/>
<path d="M72.1249 35.5281V38.4719H56.6696V35.5281H72.1249Z" fill="#6D6D6D"/>
<path d="M9.5216 12.5408L11.6032 10.4592L22.5318 21.3878L20.4502 23.4694L9.5216 12.5408Z" fill="#6D6D6D"/>
<path d="M49.593 52.6122L51.6747 50.5306L62.6032 61.4592L60.5216 63.5408L49.593 52.6122Z" fill="#6D6D6D"/>
<path d="M20.4502 50.5306L22.5318 52.6122L11.6032 63.5408L9.5216 61.4592L20.4502 50.5306Z" fill="#6D6D6D"/>
<path d="M60.5216 10.4592L62.6032 12.5408L51.6747 23.4694L49.593 21.3878L60.5216 10.4592Z" fill="#6D6D6D"/>
<path d="M48.0208 49.0209C41.3819 55.6598 30.6181 55.6598 23.9791 49.0209C17.3402 42.382 17.3402 31.6181 23.9791 24.9792C23.9791 24.9792 29.3611 30.3611 36 37C42.6389 43.6389 48.0208 49.0209 48.0208 49.0209Z" fill="white"/>
<path d="M36.0439 53C27.2159 52.99 20.0624 45.8304 20.0624 37C20.0624 32.9575 21.5616 29.2652 24.0343 26.4486L24.2167 26.631L26.7929 29.2071L35.2929 37.7071L43.7929 46.2071L46.369 48.7833L46.5848 48.9991C43.5786 51.6561 39.8128 52.9897 36.0439 53ZM52.0624 37C52.0624 41.0743 50.5395 44.793 48.0319 47.6178L47.7832 47.3691L45.2071 44.7929L36.7071 36.2929L28.2071 27.7929L25.6309 25.2168L25.4447 25.0305C28.2694 22.5229 31.9881 21 36.0624 21C44.899 21 52.0624 28.1634 52.0624 37ZM35.5905 1.93756H36.5344V15.3929H35.5905V1.93756ZM35.5905 58.6071H36.5344V72.0625H35.5905V58.6071ZM14.4553 36.5281V37.4719H1L1 36.5281H14.4553ZM71.1249 36.5281V37.4719H57.6696V36.5281H71.1249ZM11.6032 11.8734L21.1176 21.3878L20.4502 22.0552L10.9358 12.5408L11.6032 11.8734ZM51.0073 52.6122L51.6747 51.9448L61.189 61.4592L60.5216 62.1266L51.0073 52.6122ZM10.9358 61.4592L20.4502 51.9448L21.1176 52.6122L11.6032 62.1266L10.9358 61.4592ZM51.0073 21.3878L60.5216 11.8734L61.189 12.5408L51.6747 22.0552L51.0073 21.3878Z" stroke="white" stroke-width="2"/>
</svg>
