<svg width="74" height="74" viewBox="0 0 74 74" fill="none" xmlns="http://www.w3.org/2000/svg">
<path d="M54 37C54 46.3888 46.3888 54 37 54C27.6112 54 20 46.3888 20 37C20 27.6112 27.6112 20 37 20C46.3888 20 54 27.6112 54 37Z" fill="#6D6D6D"/>
<path d="M35.5281 0.937561H38.4719V16.3929H35.5281V0.937561Z" fill="#6D6D6D"/>
<path d="M35.5281 57.6071H38.4719V73.0625H35.5281V57.6071Z" fill="#6D6D6D"/>
<path d="M16.3929 35.5281V38.4719H0.937561L0.937561 35.5281H16.3929Z" fill="#6D6D6D"/>
<path d="M73.0625 35.5281V38.4719H57.6071V35.5281H73.0625Z" fill="#6D6D6D"/>
<path d="M10.4592 12.5408L12.5408 10.4592L23.4694 21.3878L21.3877 23.4694L10.4592 12.5408Z" fill="#6D6D6D"/>
<path d="M50.5306 52.6122L52.6122 50.5306L63.5408 61.4592L61.4592 63.5408L50.5306 52.6122Z" fill="#6D6D6D"/>
<path d="M21.3877 50.5306L23.4694 52.6122L12.5408 63.5408L10.4592 61.4592L21.3877 50.5306Z" fill="#6D6D6D"/>
<path d="M61.4592 10.4592L63.5408 12.5408L52.6122 23.4694L50.5306 21.3878L61.4592 10.4592Z" fill="#6D6D6D"/>
</svg>
